<svg width="150" height="150" viewBox="0 0 150 150" fill="none" xmlns="http://www.w3.org/2000/svg">
<g clip-path="url(#clip0_153_318)">
<path d="M138.316 65.5546C138.316 65.5546 146.306 37.1073 133.233 4.83391C132.945 4.10981 132.387 3.52603 131.676 3.20573C130.966 2.88543 130.158 2.85366 129.425 3.11711C122.648 5.54876 104.229 13.9892 93.3252 30.7939C82.8809 27.8583 75 28.0048 75 28.0048C75 28.0048 67.1191 27.8583 56.666 30.7939C45.7646 13.9892 27.3428 5.54876 20.5664 3.11711C19.8329 2.85366 19.0257 2.88543 18.3151 3.20573C17.6046 3.52603 17.0462 4.10981 16.7578 4.83391C3.69434 37.1073 11.6836 65.5546 11.6836 65.5546L11.8154 65.3964C5.33496 73.2011 2.92969 76.1425 2.92969 76.1425C2.92969 147.07 75 147.07 75 147.07C75 147.07 147.07 147.07 147.07 76.1513C147.07 76.1425 144.697 73.2421 138.316 65.5546Z" fill="#FFC360"/>
<path d="M42.7733 36.249C37.4003 24.9785 30.1434 16.6494 24.662 11.4258C19.2304 27.2637 19.4794 44.8828 20.3026 55.1953L22.8778 52.1045C28.3822 45.5416 35.1476 40.15 42.7733 36.249Z" fill="#EBACAC"/>
<path d="M20.5664 3.11711C19.8329 2.85366 19.0257 2.88543 18.3151 3.20573C17.6046 3.52603 17.0462 4.10981 16.7578 4.83391C16.7578 4.83391 32.9473 15.6093 42.7734 36.249C47.2128 33.9651 51.8724 32.1373 56.6807 30.7939C45.7647 13.9892 27.3428 5.54876 20.5664 3.11711Z" fill="#FFB02F"/>
<path d="M129.434 3.11711C130.167 2.85366 130.974 2.88543 131.685 3.20573C132.395 3.52603 132.954 4.10981 133.242 4.83391C133.242 4.83391 117.062 15.6093 107.25 36.249C102.811 33.9651 98.151 32.1373 93.3428 30.7939C104.235 13.9892 122.657 5.54876 129.434 3.11711Z" fill="#FFB02F"/>
<path d="M67.7051 55.5615L69.9229 28.2803C64.3963 28.8386 58.9453 29.9867 53.6631 31.7051L64.374 56.1211C64.5289 56.4774 64.7985 56.7717 65.14 56.957C65.4815 57.1423 65.8752 57.208 66.2583 57.1436C66.6415 57.0792 66.9921 56.8885 67.2542 56.6018C67.5164 56.3151 67.6751 55.9489 67.7051 55.5615Z" fill="#D69120"/>
<path d="M75 138.325C75 138.325 8.68066 138.325 3.28418 75.7148L2.92969 76.1426C2.92969 147.07 75 147.07 75 147.07C75 147.07 147.07 147.07 147.07 76.1514L146.722 75.7236C141.319 138.322 75 138.325 75 138.325Z" fill="#F1AD3C"/>
<path d="M19.1777 84.1612C14.5547 85.7345 8.49609 88.0489 3.91699 89.8419C4.62974 94.6921 5.83519 99.457 7.51465 104.063L20.9648 86.6778C21.1777 86.4045 21.2968 86.0698 21.3045 85.7233C21.3122 85.3769 21.208 85.0373 21.0073 84.7548C20.8067 84.4723 20.5204 84.262 20.1908 84.1551C19.8612 84.0481 19.506 84.0503 19.1777 84.1612Z" fill="#D69120"/>
<path d="M18.2432 122.44L29.042 108.48C29.2554 108.206 29.3746 107.871 29.3818 107.524C29.389 107.176 29.2838 106.836 29.0819 106.554C28.88 106.271 28.5922 106.061 28.2614 105.955C27.9306 105.85 27.5745 105.854 27.2461 105.967C22.3096 107.645 15.7383 110.171 11.0771 112.002C13.0805 115.731 15.4833 119.231 18.2432 122.44Z" fill="#D69120"/>
<path d="M130.822 84.1612C135.446 85.7345 141.501 88.0489 146.083 89.8419C145.37 94.6921 144.165 99.457 142.486 104.063L129.035 86.6778C128.822 86.4045 128.703 86.0698 128.696 85.7233C128.688 85.3769 128.792 85.0373 128.993 84.7548C129.193 84.4723 129.48 84.262 129.809 84.1551C130.139 84.0481 130.494 84.0503 130.822 84.1612Z" fill="#D69120"/>
<path d="M131.757 122.44L120.958 108.48C120.746 108.207 120.628 107.873 120.621 107.527C120.614 107.181 120.719 106.843 120.919 106.561C121.12 106.279 121.405 106.069 121.734 105.962C122.063 105.855 122.417 105.857 122.745 105.967C127.682 107.646 134.253 110.171 138.914 112.002C136.914 115.73 134.514 119.23 131.757 122.44Z" fill="#D69120"/>
<path d="M47.6719 53.5518C47.9496 53.8138 48.3052 53.9782 48.6847 54.0202C49.0643 54.0622 49.4472 53.9795 49.7755 53.7846C50.1039 53.5896 50.3598 53.293 50.5046 52.9397C50.6494 52.5864 50.6752 52.1955 50.5781 51.8262L45.5801 34.8633C41.9146 36.5506 38.4074 38.5625 35.1006 40.875L47.6719 53.5518Z" fill="#D69120"/>
<path d="M102.328 53.5518L114.9 40.8809C111.593 38.5664 108.086 36.5525 104.42 34.8633L99.422 51.8262C99.3249 52.1955 99.3507 52.5864 99.4956 52.9397C99.6404 53.293 99.8963 53.5896 100.225 53.7846C100.553 53.9795 100.936 54.0622 101.315 54.0202C101.695 53.9782 102.051 53.8138 102.328 53.5518Z" fill="#D69120"/>
<path d="M85.626 56.1211L96.3369 31.7051C91.0548 29.9864 85.6038 28.8383 80.0771 28.2803L82.2949 55.5615C82.3249 55.9489 82.4836 56.3151 82.7458 56.6018C83.008 56.8885 83.3585 57.0792 83.7417 57.1436C84.1248 57.208 84.5185 57.1423 84.86 56.957C85.2015 56.7717 85.4711 56.4774 85.626 56.1211Z" fill="#D69120"/>
<path d="M107.241 36.249C112.6 24.9785 119.856 16.6494 125.338 11.4111C130.77 27.2637 130.521 44.8828 129.697 55.1953L127.122 52.1045C121.623 45.5425 114.862 40.151 107.241 36.249Z" fill="#EBACAC"/>
<path d="M97.6641 107.716C86.7275 112.11 79.8809 105.639 77.9678 103.45V102.138C78.9434 101.599 80.2383 100.849 81.5449 99.9727C85.7578 97.1543 87.7207 94.6611 87.7207 92.124C87.7207 90.4336 87.0791 87.3984 82.7842 86.0977C80.5664 85.4268 77.751 85.3359 75.0381 85.3359C72.3252 85.3359 69.5098 85.4268 67.2949 86.0977C62.9971 87.3984 62.3555 90.4336 62.3555 92.124C62.3555 94.6611 64.3184 97.1543 68.5342 99.9727C69.8408 100.852 71.1358 101.599 72.1084 102.138V103.447C70.1836 105.65 63.3399 112.113 52.4121 107.716C52.0532 107.561 51.667 107.48 51.2762 107.476C50.8853 107.473 50.4978 107.548 50.1364 107.697C49.775 107.846 49.447 108.065 49.1718 108.343C48.8966 108.62 48.6797 108.95 48.5338 109.313C48.388 109.676 48.3162 110.064 48.3227 110.454C48.3291 110.845 48.4137 111.231 48.5715 111.588C48.7292 111.946 48.9569 112.268 49.2411 112.537C49.5254 112.805 49.8604 113.014 50.2266 113.15C53.2208 114.398 56.4282 115.055 59.6719 115.084C63.3928 115.084 67.0512 114.127 70.2949 112.304C72.0125 111.34 73.6054 110.169 75.0381 108.817C76.4719 110.169 78.0658 111.34 79.7842 112.304C83.0279 114.127 86.6863 115.084 90.4072 115.084C93.6509 115.055 96.8583 114.398 99.8525 113.15C100.561 112.852 101.125 112.287 101.42 111.577C101.716 110.867 101.721 110.069 101.434 109.356C101.146 108.642 100.59 108.07 99.8848 107.764C99.1795 107.457 98.3819 107.44 97.6641 107.716Z" fill="black"/>
<path d="M126.026 58.0782C125.983 57.6808 125.859 57.2965 125.662 56.9488C125.465 56.6012 125.199 56.2975 124.88 56.0566C124.561 55.8156 124.196 55.6425 123.808 55.5478C123.42 55.4531 123.016 55.4388 122.622 55.5059L78.3312 63.0528H71.6691L27.3781 55.5059C26.984 55.4388 26.5805 55.4531 26.1922 55.5478C25.8039 55.6425 25.4391 55.8156 25.1202 56.0566C24.8013 56.2975 24.5351 56.6012 24.3379 56.9488C24.1408 57.2965 24.0168 57.6808 23.9738 58.0782C23.9005 58.7461 22.2892 74.5079 30.1759 84.2403C33.6241 88.4971 38.3087 90.9522 44.1036 91.5352C45.4206 91.6711 46.7436 91.7405 48.0675 91.7432C54.9054 91.7432 60.6154 89.792 65.0861 85.9249C67.9989 83.341 70.2869 80.1294 71.7775 76.5323H78.2228C79.7167 80.1305 82.0088 83.3422 84.9259 85.9249C89.3966 89.792 95.1066 91.7432 101.944 91.7432C103.268 91.7405 104.591 91.6711 105.908 91.5352C111.703 90.9493 116.388 88.4971 119.836 84.2403C127.711 74.5079 126.1 58.7461 126.026 58.0782Z" fill="black"/>
<path d="M25.0106 97.5323L34.8631 99.0235C35.2446 99.0813 35.6337 99.0633 36.0082 98.9706C36.3827 98.8779 36.7353 98.7124 37.0459 98.4835C37.3564 98.2546 37.6188 97.9667 37.8181 97.6364C38.0174 97.306 38.1497 96.9397 38.2074 96.5582C38.2651 96.1767 38.2471 95.7877 38.1544 95.4131C38.0618 95.0386 37.8963 94.686 37.6673 94.3755C37.4384 94.065 37.1506 93.8025 36.8202 93.6033C36.4899 93.404 36.1235 93.2717 35.7421 93.214L25.8778 91.7198C25.1074 91.6033 24.3223 91.7975 23.6951 92.2599C23.0679 92.7222 22.6501 93.4148 22.5336 94.1852C22.417 94.9556 22.6113 95.7407 23.0736 96.3679C23.5359 96.995 24.2285 97.4128 24.9989 97.5294L25.0106 97.5323Z" fill="black"/>
<path d="M35.1184 104.297L25.2541 106.427C24.4923 106.59 23.8264 107.049 23.4031 107.703C22.9798 108.357 22.8336 109.153 22.9968 109.915C23.16 110.676 23.6191 111.342 24.2732 111.766C24.9273 112.189 25.7227 112.335 26.4846 112.172L36.3488 110.048C37.1107 109.885 37.7765 109.426 38.1999 108.771C38.6232 108.117 38.7693 107.322 38.6062 106.56C38.443 105.798 37.9839 105.132 37.3298 104.709C36.6757 104.286 35.8802 104.14 35.1184 104.303V104.297Z" fill="black"/>
<path d="M124.113 91.7227L114.258 93.2169C113.876 93.2746 113.51 93.4068 113.18 93.6061C112.85 93.8053 112.562 94.0676 112.333 94.378C112.105 94.6884 111.939 95.0408 111.847 95.4152C111.754 95.7895 111.736 96.1784 111.794 96.5597C111.852 96.9409 111.984 97.3071 112.183 97.6373C112.382 97.9674 112.645 98.2551 112.955 98.4839C113.265 98.7127 113.618 98.8781 113.992 98.9707C114.366 99.0633 114.755 99.0812 115.137 99.0235L125.001 97.5294C125.382 97.4717 125.749 97.3394 126.079 97.1401C126.409 96.9408 126.697 96.6784 126.926 96.3679C127.155 96.0573 127.321 95.7047 127.413 95.3302C127.506 94.9557 127.524 94.5666 127.466 94.1851C127.408 93.8037 127.276 93.4373 127.077 93.107C126.878 92.7766 126.615 92.4888 126.305 92.2599C125.994 92.0309 125.642 91.8654 125.267 91.7728C124.892 91.6801 124.503 91.6621 124.122 91.7198L124.113 91.7227Z" fill="black"/>
<path d="M124.746 106.427L114.882 104.297C114.12 104.134 113.325 104.28 112.671 104.703C112.017 105.126 111.557 105.792 111.394 106.554C111.231 107.316 111.377 108.111 111.801 108.766C112.224 109.42 112.89 109.879 113.652 110.042L123.516 112.166C124.278 112.329 125.073 112.183 125.727 111.76C126.381 111.336 126.84 110.671 127.004 109.909C127.167 109.147 127.021 108.351 126.597 107.697C126.174 107.043 125.508 106.584 124.746 106.421V106.427Z" fill="black"/>
<path d="M149.338 74.2794C149.306 74.2413 147.123 71.5753 141.519 64.8165C142.14 62.086 143.332 55.8809 143.607 47.3936C143.947 36.9434 142.896 20.8888 135.958 3.7413C135.926 3.66513 135.891 3.59188 135.855 3.51864C135.248 2.15314 134.147 1.06781 132.773 0.480417C131.398 -0.106975 129.853 -0.152973 128.446 0.35165C124.471 1.77841 104.552 9.62411 92.0742 27.419C82.6992 25.0431 75.7412 25.0548 75 25.0753C74.2588 25.0958 67.3096 25.0518 57.9258 27.419C45.4482 9.62411 25.5293 1.77841 21.5537 0.35165C20.149 -0.151899 18.6058 -0.105604 17.2337 0.481244C15.8617 1.06809 14.7624 2.15208 14.1562 3.51571C14.1152 3.59579 14.0771 3.67782 14.042 3.76181C7.10449 20.8888 6.05273 36.9434 6.39258 47.3936C6.6709 55.8897 7.85742 62.086 8.48145 64.8165C2.87695 71.5753 0.694336 74.2413 0.662109 74.2794C0.23363 74.8058 -0.000216067 75.4639 1.49803e-07 76.1427C1.49803e-07 92.918 3.95801 107.268 11.7656 118.793C18.0352 128.042 26.751 135.46 37.6729 140.833C56.0889 149.895 74.2354 150 75 150C75.7646 150 93.9111 149.895 112.327 140.833C123.249 135.46 131.956 128.042 138.234 118.793C146.042 107.268 150 92.918 150 76.1427C150 75.4639 149.766 74.8058 149.338 74.2794ZM123.993 8.62509C116.679 15.4533 110.569 23.4661 105.92 32.3263C103.357 31.1323 100.73 30.0809 98.0508 29.1768C106.078 18.5567 116.953 12.0294 123.993 8.62509ZM51.9492 29.1768C49.2702 30.0809 46.6431 31.1323 44.0801 32.3263C39.4308 23.4661 33.3208 15.4533 26.0068 8.62509C33.0469 12.0294 43.9219 18.5567 51.9492 29.1768ZM133.444 115.398C127.787 123.788 119.871 130.544 109.916 135.475C92.71 143.997 75.1729 144.123 75 144.123C74.8271 144.123 57.4658 144.026 40.2598 135.56C30.2607 130.641 22.3066 123.888 16.6201 115.491C9.64453 105.196 6.0293 92.3116 5.85938 77.1886C7.52344 75.1641 12.46 69.1759 22.541 57.0763C22.8101 56.7847 23.0172 56.4416 23.1497 56.0677C23.2822 55.6937 23.3374 55.2968 23.3119 54.9009C23.2864 54.505 23.1808 54.1184 23.0014 53.7645C22.822 53.4107 22.5727 53.0969 22.2684 52.8423C21.9642 52.5877 21.6114 52.3976 21.2314 52.2834C20.8515 52.1692 20.4523 52.1334 20.0581 52.1781C19.6639 52.2228 19.2829 52.3471 18.9382 52.5434C18.5935 52.7398 18.2922 53.0041 18.0527 53.3204L13.3652 58.9659C11.9297 49.7667 10.5264 30.6886 18.1289 9.54794C26.6649 16.5875 33.719 25.2509 38.8828 35.0362C36.9844 36.0929 35.1621 37.2384 33.416 38.4727C32.7777 38.9187 32.3427 39.6 32.2067 40.3668C32.0708 41.1335 32.2449 41.9228 32.6909 42.5611C33.1369 43.1994 33.8182 43.6344 34.5849 43.7704C35.3517 43.9064 36.141 43.7322 36.7793 43.2862C39.0881 41.6691 41.5016 40.2069 44.0039 38.9093H44.0186L44.0596 38.8858C48.3344 36.6815 52.8236 34.9204 57.457 33.63C67.3213 30.8585 74.874 30.9493 74.9443 30.9464C74.9814 30.9493 75.0186 30.9493 75.0557 30.9464C75.1289 30.9464 82.6201 30.8409 92.543 33.63C97.1764 34.9204 101.666 36.6815 105.94 38.8858L105.981 38.9093H105.996C108.498 40.2069 110.912 41.6691 113.221 43.2862C113.859 43.7322 114.648 43.9064 115.415 43.7704C116.182 43.6344 116.863 43.1994 117.309 42.5611C117.755 41.9228 117.929 41.1335 117.793 40.3668C117.657 39.6 117.222 38.9187 116.584 38.4727C114.826 37.2423 113.01 36.0919 111.135 35.0216C117.914 22.0196 127.198 13.377 131.889 9.53329C136.152 21.5471 138.139 34.2503 137.748 46.9923C137.632 50.9975 137.266 54.9916 136.652 58.9513L131.947 53.3204C131.449 52.7229 130.734 52.3477 129.96 52.2774C129.185 52.207 128.414 52.4473 127.816 52.9454C127.219 53.4435 126.844 54.1585 126.773 54.9332C126.703 55.7078 126.943 56.4787 127.441 57.0763C137.522 69.1759 142.459 75.1641 144.123 77.1886C143.971 92.2647 140.379 105.117 133.444 115.398Z" fill="black"/>
</g>
<defs>
<clipPath id="clip0_153_318">
<rect width="150" height="150" fill="white"/>
</clipPath>
</defs>
</svg>
